# xmcd CD database file
#
# Track frame offsets:
#	150
#	7004
#	27932
#	39378
#	54435
#	67354
#	73261
#	84809
#	98802
#	107742
#	122199
#	130890
#	137197
#	148923
#	159977
#	170063
#	187338
#
# Disc length: 2610 seconds
#
# Revision: 0
# Processed by: cddbd v1.5.1PL2 Copyright (c) Steve Scherf et al.
# Submitted via: CDex 1.51
#
DISCID=010a3011
DTITLE=Various Artist - Brokeback Mountain Soundtrack
DYEAR=2005
DGENRE=Country
TTITLE0=Gustavo Santaolalla - Opening
TTITLE1=Willie Nelson - He Was a Friend of Mine
TTITLE2=Gustavo Santaolalla - Brokeback Mountain 1
TTITLE3=Emmylou Harris - A Love That Will Never Grow Old
TTITLE4=Teddy Thompson and Rufus Wainwright - King of the Road
TTITLE5=Gustavo Santaolalla - Snow
TTITLE6=Steve Earle - The Devil's Right Hand
TTITLE7=Mary McBride - No One's Gonna Love You Like Me
TTITLE8=Gustavo Santaolalla - Brokeback Mountain 2
TTITLE9=Teddy Thompson - I Don't Want to Say Goodbye
TTITLE10=Jackie Green - I Will Never Let You Go
TTITLE11=Gustavo Santaolalla - Riding Horses
TTITLE12=The Gas Band - An Angel Went Up in Flames
TTITLE13=Linda Ronstadt - It's So Easy
TTITLE14=Gustavo Santaolalla - Brokeback Mountain 3
TTITLE15=Rufus Wainwright - The Maker Makes
TTITLE16=Gustavo Santaolalla - The Wings
EXTD=YEAR: 2005
EXTT0=
EXTT1=
EXTT2=
EXTT3=
EXTT4=
EXTT5=
EXTT6=
EXTT7=
EXTT8=
EXTT9=
EXTT10=
EXTT11=
EXTT12=
EXTT13=
EXTT14=
EXTT15=
EXTT16=
PLAYORDER=
